# xmcd
#
# Track frame offsets: 
#        150
#        21348
#        41784
#        61636
#        76427
#        99369
#        119477
#        138933
#        156874
#        177203
#        202190
#        220331
#        240414
#        263364
#        283523
#        303873
#        329791
#
# Disc length: 4719 seconds
#
# Revision: 0
# Processed by: cddbd v1.5.2PL0 Copyright (c) Steve Scherf et al.
# Submitted via: ExactAudioCopyFreeDBPlugin 1.0
#
DISCID=ee126d11
DTITLE=DOUBLE - 10 YEARS BEST WE R&B
DYEAR=2008
DGENRE=R&B
TTITLE0=Driving All Night
TTITLE1=You Got To
TTITLE2=Who's That Girl
TTITLE3=Kissing You
TTITLE4=Rollin' On
TTITLE5=destiny
TTITLE6=Wonderful
TTITLE7=Souljah
TTITLE8=Okaeri
TTITLE9=ROCK THE PARTY
TTITLE10=Call Me
TTITLE11=Emotions
TTITLE12=SPRING LOVE
TTITLE13=SUMMERTIME feat. VERBAL
TTITLE14=WHY DO YOU GO
TTITLE15=残り火 -eternal BED-
TTITLE16=Midnight Bus
EXTD=YEAR: 2008
EXTT0=
EXTT1=
EXTT2=
EXTT3=
EXTT4=
EXTT5=
EXTT6=
EXTT7=
EXTT8=
EXTT9=
EXTT10=
EXTT11=
EXTT12=
EXTT13=
EXTT14=
EXTT15=
EXTT16=
PLAYORDER=
